<svg xmlns="http://www.w3.org/2000/svg" viewBox="0 0 339 339"><defs><style>.a,.b{fill:#fff;}.a{stroke:#000;}.a,.d{stroke-miterlimit:10;}.c{fill:#388e3c;}.d{fill:none;stroke:#6d4c41;stroke-linecap:round;stroke-width:11px;}.e{fill:#4caf50;}</style></defs><title>communityicon</title><path class="a" d="M180.52,5" transform="translate(-87.41 -71.99)"/><circle class="b" cx="169.5" cy="169.5" r="169.5"/><path class="c" d="M323.41,258a61.94,61.94,0,1,1-123.88,0c0-24.63,34.25-95.49,53.93-135.53,7.61-15.48-2.62-18,10.32-.52C283.17,148.12,323.41,223.79,323.41,258Z" transform="translate(-87.41 -71.99)"/><line class="d" x1="174.06" y1="142.89" x2="174.06" y2="298.04"/><line class="d" x1="174.06" y1="221.43" x2="202.59" y2="175.22"/><line class="d" x1="174.06" y1="176.76" x2="161" y2="155.97"/><path class="e" d="M263.78,122c-8.72-11.94-6.89-14.52-7.16-10.11a11.94,11.94,0,0,0-.54,3.53c19.75,25.9,56.55,108.42,56.55,142.63a61.93,61.93,0,0,1-45.94,59.82,10.48,10.48,0,0,1,.21,1.59,2.64,2.64,0,0,1,0,.28A61.94,61.94,0,0,0,323.41,258C323.41,223.79,281.78,146.59,263.78,122Z" transform="translate(-87.41 -71.99)"/></svg>